Motion_pl13
version=1
nRows=10
nColumns=43
inDegrees=yes
endheader
time	pelvis_tilt	pelvis_list	pelvis_rotation	pelvis_tx	pelvis_ty	pelvis_tz	hip_flexion_r	hip_adduction_r	hip_rotation_r	knee_angle_r	ankle_angle_r	subtalar_angle_r	mtp_angle_r	hip_flexion_l	hip_adduction_l	hip_rotation_l	knee_angle_l	ankle_angle_l	subtalar_angle_l	mtp_angle_l	lumbar_extension	lumbar_bending	lumbar_rotation	neck_flexion	neck_lateral_bending	neck_rotation	arm_flex_r	arm_add_r	arm_rot_r	elbow_flex_r	pro_sup_r	wrist_flex_r	wrist_dev_r	hand_finger_flex_r	arm_flex_l	arm_add_l	arm_rot_l	elbow_flex_l	pro_sup_l	wrist_flex_l	wrist_dev_l	hand_finger_flex_l
      1.86500000	      5.13898007	     -8.50096134	     87.45768456	     -0.04510907	      0.86195201	      0.35979148	     38.75870647	      0.63307205	     -4.23595189	    -54.48954122	     15.49797782	      9.00991317	     25.66069139	     38.16677414	     -9.78351364	     -6.68815317	    -59.88408262	     17.74202247	     10.51361578	     35.98384967	    -37.05706329	      5.94617005	     -3.01439893	     -1.81869299	     -6.05676519	      7.47330818	     -5.25642964	    -27.95151350	      0.22343846	     59.90712995	    120.32024882	     14.05385703	      6.27166659	    -15.29029103	     -5.88710814	    -27.45537589	     -7.84578939	     59.49634183	    116.44040317	      3.13995474	      3.98158930	     21.26276932
      1.86750000	      5.17214411	     -8.48556802	     87.47309193	     -0.04485573	      0.86366073	      0.35889306	     38.39994565	      0.67036979	     -4.27854853	    -53.97620680	     15.36061389	      9.09323957	     25.64279406	     37.79492410	     -9.79997282	     -6.72987069	    -59.33704655	     17.69190422	     10.52360619	     35.96570581	    -36.75479289	      5.96363671	     -3.00667800	     -2.11711232	     -6.06285453	      7.45104479	     -5.83872937	    -27.86439604	      0.14399021	     59.71406702	    120.25984215	     14.11021147	      6.29279752	    -15.29379217	     -6.50101289	    -27.36356375	     -7.86729826	     59.39484939	    116.44153377	      3.19875660	      3.92304828	     21.25909303
      1.87000000	      5.29582344	     -7.54303265	     87.44159293	     -0.04447302	      0.86719108	      0.35694109	     36.87636490	      0.76563941	     -4.39381555	    -53.31185224	     15.34468773	      9.43925649	     25.64476803	     36.26256705	     -9.97090573	     -6.94293068	    -58.71492398	     17.80950030	     10.68604467	     35.75769031	    -37.41196132	      5.96723272	     -2.83977931	     -2.68171694	     -6.07603873	      7.26665326	     -6.36548356	    -27.56369404	     -0.39333527	     59.37580822	    119.99412706	     14.57053518	      6.28153705	    -15.39883348	     -6.87873730	    -27.09119664	     -8.16928446	     59.04695471	    116.84133986	      3.61627290	      3.33902577	     20.96717055
      1.87250000	      5.31651129	     -7.61697450	     87.48455149	     -0.04433426	      0.86860570	      0.35613592	     36.67086454	      0.80283057	     -4.37359507	    -52.89853242	     15.21433480	      9.46213973	     25.62399669	     36.00874982	     -9.94763428	     -6.95552666	    -58.18567065	     17.76042629	     10.69259008	     35.74179887	    -37.02577308	      6.00885487	     -2.85932290	     -2.82346631	     -6.07541656	      7.26674433	     -6.94454742	    -27.52342167	     -0.39664602	     59.23107480	    119.98678789	     14.59644034	      6.31972830	    -15.40685681	     -7.49340788	    -27.01495689	     -8.13351792	     58.97529069	    116.85954001	      3.67532290	      3.33097204	     20.96262912
      1.87500000	      5.33553287	     -7.64869074	     87.53522285	     -0.04415186	      0.87006849	      0.35525767	     36.39643942	      0.84365763	     -4.35394786	    -52.44526590	     15.05866645	      9.47655828	     25.59959470	     35.71333636	     -9.92401535	     -6.97182337	    -57.66890621	     17.71356786	     10.69136521	     35.72319023	    -36.65728878	      6.03979457	     -2.89400297	     -3.13247118	     -6.08495189	      7.26474730	     -7.53111841	    -27.43623545	     -0.46359966	     59.06584138	    119.95511546	     14.61519374	      6.35612104	    -15.41471329	     -8.11672885	    -26.92425546	     -8.16155347	     58.89047317	    116.86812640	      3.71578282	      3.29782413	     20.94181001
      1.87750000	      5.35776005	     -7.64759235	     87.59334009	     -0.04401376	      0.87156098	      0.35431345	     36.08353812	      0.88689012	     -4.33125864	    -51.99517446	     14.90703207	      9.46920786	     25.57554297	     35.37322412	     -9.89950227	     -6.99493890	    -57.14200577	     17.67069601	     10.68506728	     35.70285627	    -36.30520714	      6.08076337	     -2.93691047	     -3.51969509	     -6.09082284	      7.26016407	     -8.11089738	    -27.31793915	     -0.56727163	     58.88040565	    119.90584526	     14.63946396	      6.39101958	    -15.41682861	     -8.73111395	    -26.79223686	     -8.22049218	     58.78491170	    116.87241232	      3.74205423	      3.24524155	     20.90691753
      1.88000000	      5.37949878	     -7.38776210	     87.67084552	     -0.04375800	      0.87345638	      0.35290180	     35.47131722	      0.92120483	     -4.35382255	    -51.56923081	     14.71235272	      9.35653880	     25.54548225	     34.74880076	     -9.89755824	     -7.05165474	    -56.69833948	     17.65402622	     10.65548191	     35.64431226	    -36.12277981	      6.08733472	     -2.98674423	     -4.43160196	     -6.12015185	      7.24470880	     -8.67543270	    -26.99413641	     -0.93226808	     58.50115942	    119.76936024	     14.69653661	      6.44924016	    -15.41663027	     -9.31056430	    -26.49947992	     -8.53744904	     58.53977993	    116.90807975	      3.71256458	      3.05920040	     20.73931917
      1.88250000	      5.40070872	     -7.43441197	     87.72108218	     -0.04371185	      0.87485622	      0.35208684	     35.22278286	      0.96482539	     -4.32579625	    -51.12948667	     14.63356183	      9.34121773	     25.53281142	     34.45361877	     -9.86600931	     -7.08374169	    -56.13975288	     17.62012560	     10.66194806	     35.62721238	    -35.77870809	      6.13855409	     -3.00937233	     -4.48626775	     -6.09232802	      7.23091442	     -9.22548237	    -26.96983688	     -0.93739574	     58.36752153	    119.74374331	     14.77217219	      6.47190046	    -15.39456079	     -9.87568033	    -26.39587674	     -8.51194755	     58.42342535	    116.93798124	      3.76050342	      3.02797728	     20.71487952
      1.88500000	      5.42713195	     -6.79499424	     87.73857193	     -0.04354558	      0.87765953	      0.35045088	     34.06120737	      1.01530545	     -4.33350338	    -50.47237014	     14.52047847	      9.14167437	     25.55906753	     33.27132539	     -9.89053841	     -7.28944563	    -55.47912080	     17.68618858	     10.71736212	     35.41404851	    -36.11686466	      6.12043344	     -2.98469816	     -4.92932125	     -6.10098324	      7.16913026	     -9.70748330	    -26.69105367	     -1.39190961	     58.04549787	    119.59268112	     15.21678000	      6.48656235	    -15.29111583	    -10.35118521	    -26.07343948	     -8.90374471	     58.16899725	    117.34022311	      3.88554510	      2.54821824	     20.17582703
      1.88750000	      5.44369058	     -6.87177329	     87.78870490	     -0.04345083	      0.87895997	      0.34969601	     33.87660677	      1.04458952	     -4.33187620	    -50.06493005	     14.39467102	      9.16789457	     25.54524701	     33.02563022	     -9.86573927	     -7.32473628	    -54.94025689	     17.63147005	     10.72809631	     35.39640572	    -35.73574442	      6.15780091	     -3.01006012	     -5.06657996	     -6.09859261	      7.17962216	    -10.28354251	    -26.65260575	     -1.39356145	     57.95806529	    119.58041828	     15.24669546	      6.49635787	    -15.28685732	    -10.93972083	    -25.97690984	     -8.88259871	     58.12603629	    117.34470744	      3.92775859	      2.53535288	     20.15961458
